# xmcd CD database file
#
# Track frame offsets:
#	180
#	17313
#	31302
#	44018
#	57100
#	66957
#	79682
#	89620
#	97082
#	107694
#	119433
#	134412
#
# Disc length: 1947 seconds
#
# Revision: 0
# Processed by: cddbd v1.5.1PL0 Copyright (c) Steve Scherf et al.
# Submitted via: CDex 1.51
#
DISCID=a007990c
DTITLE=Various Artist - Everything is Beautiful - Country Classics
DYEAR=1900
DGENRE=Country
TTITLE0=Blue Bayou
TTITLE1=He'll have to go
TTITLE2=Almost persuaded
TTITLE3=The son of Hickory Holler's tramp
TTITLE4=Shake 'em up and roll 'em
TTITLE5=Seasons of my heart
TTITLE6=Before the next teardrop falls
TTITLE7=Blue Boy
TTITLE8=I'm starting to go steady with the blues
TTITLE9=A poor man's roses
TTITLE10=Everything is beautiful
TTITLE11=D.I.V.O.R.C.E.
EXTD=
EXTT0=
EXTT1=
EXTT2=
EXTT3=
EXTT4=
EXTT5=
EXTT6=
EXTT7=
EXTT8=
EXTT9=
EXTT10=
EXTT11=
PLAYORDER=
